<mxfile host="app.diagrams.net" modified="2021-04-02T09:31:17.268Z" agent="5.0 (Macintosh; Intel Mac OS X 11_1_0) AppleWebKit/537.36 (KHTML, like Gecko) Chrome/89.0.4389.90 Safari/537.36" etag="XM86m_ZVviOOtl4WyCX-" version="14.5.4" type="github">
  <diagram id="T2LhBFQ2zP061ec0hvCZ" name="Page-1">
    <mxGraphModel dx="2951" dy="1613" grid="1" gridSize="10" guides="1" tooltips="1" connect="1" arrows="1" fold="1" page="1" pageScale="1" pageWidth="827" pageHeight="1169" math="0" shadow="0">
      <root>
        <mxCell id="0" />
        <mxCell id="1" parent="0" />
        <mxCell id="cb4l5SWerSysEZ6yqc60-1" value="" style="rounded=1;whiteSpace=wrap;html=1;fillColor=none;dashed=1;arcSize=2;strokeWidth=3;strokeColor=#FF3333;" vertex="1" parent="1">
          <mxGeometry x="40" y="160" width="1360" height="840" as="geometry" />
        </mxCell>
        <mxCell id="cb4l5SWerSysEZ6yqc60-2" value="" style="rounded=1;whiteSpace=wrap;html=1;dashed=1;fillColor=none;arcSize=2;strokeWidth=3;strokeColor=#6666FF;" vertex="1" parent="1">
          <mxGeometry x="720" y="120" width="720" height="920" as="geometry" />
        </mxCell>
        <mxCell id="lNBJAE7iZFgmnZ37y5jd-3" value="" style="strokeWidth=1;shadow=0;dashed=0;align=center;html=1;shape=mxgraph.mockup.containers.browserWindow;rSize=0;strokeColor=#666666;strokeColor2=#008cff;strokeColor3=#c4c4c4;mainText=,;recursiveResize=0;" parent="1" vertex="1">
          <mxGeometry x="80" y="260" width="550" height="460" as="geometry" />
        </mxCell>
        <mxCell id="lNBJAE7iZFgmnZ37y5jd-4" value="Landing Page" style="strokeWidth=1;shadow=0;dashed=0;align=center;html=1;shape=mxgraph.mockup.containers.anchor;fontSize=17;fontColor=#666666;align=left;" parent="lNBJAE7iZFgmnZ37y5jd-3" vertex="1">
          <mxGeometry x="60" y="12" width="170" height="26" as="geometry" />
        </mxCell>
        <mxCell id="lNBJAE7iZFgmnZ37y5jd-5" value="https://kuench.dev" style="strokeWidth=1;shadow=0;dashed=0;align=center;html=1;shape=mxgraph.mockup.containers.anchor;rSize=0;fontSize=17;fontColor=#666666;align=left;" parent="lNBJAE7iZFgmnZ37y5jd-3" vertex="1">
          <mxGeometry x="130" y="60" width="250" height="26" as="geometry" />
        </mxCell>
        <mxCell id="lNBJAE7iZFgmnZ37y5jd-7" value="Dashboard" style="rounded=1;fillColor=#0057D8;align=center;strokeColor=none;html=1;fontColor=#ffffff;fontSize=12" parent="lNBJAE7iZFgmnZ37y5jd-3" vertex="1">
          <mxGeometry x="395" y="120" width="86" height="33" as="geometry" />
        </mxCell>
        <mxCell id="lNBJAE7iZFgmnZ37y5jd-11" value="&lt;font style=&quot;font-size: 22px&quot;&gt;Kuench&lt;/font&gt;" style="text;html=1;strokeColor=none;fillColor=none;align=center;verticalAlign=middle;whiteSpace=wrap;rounded=0;" parent="lNBJAE7iZFgmnZ37y5jd-3" vertex="1">
          <mxGeometry x="80" y="133" width="40" height="20" as="geometry" />
        </mxCell>
        <mxCell id="lNBJAE7iZFgmnZ37y5jd-12" value="" style="verticalLabelPosition=bottom;shadow=0;dashed=0;align=center;html=1;verticalAlign=top;strokeWidth=1;shape=mxgraph.mockup.graphics.simpleIcon;strokeColor=#999999;" parent="lNBJAE7iZFgmnZ37y5jd-3" vertex="1">
          <mxGeometry x="60" y="170" width="190" height="50" as="geometry" />
        </mxCell>
        <UserObject label="Feature 1" placeholders="1" name="Variable" id="lNBJAE7iZFgmnZ37y5jd-13">
          <mxCell style="text;html=1;strokeColor=none;fillColor=none;align=center;verticalAlign=middle;whiteSpace=wrap;overflow=hidden;" parent="lNBJAE7iZFgmnZ37y5jd-3" vertex="1">
            <mxGeometry x="60" y="260" width="80" height="20" as="geometry" />
          </mxCell>
        </UserObject>
        <mxCell id="lNBJAE7iZFgmnZ37y5jd-14" value="" style="verticalLabelPosition=bottom;shadow=0;dashed=0;align=center;html=1;verticalAlign=top;strokeWidth=1;shape=mxgraph.mockup.graphics.simpleIcon;strokeColor=#999999;" parent="lNBJAE7iZFgmnZ37y5jd-3" vertex="1">
          <mxGeometry x="70" y="300" width="60" height="50" as="geometry" />
        </mxCell>
        <mxCell id="lNBJAE7iZFgmnZ37y5jd-15" value="" style="verticalLabelPosition=bottom;shadow=0;dashed=0;align=center;html=1;verticalAlign=top;strokeWidth=1;shape=mxgraph.mockup.graphics.simpleIcon;strokeColor=#999999;" parent="lNBJAE7iZFgmnZ37y5jd-3" vertex="1">
          <mxGeometry x="250" y="300" width="60" height="50" as="geometry" />
        </mxCell>
        <UserObject label="Feature 2" placeholders="1" name="Variable" id="lNBJAE7iZFgmnZ37y5jd-16">
          <mxCell style="text;html=1;strokeColor=none;fillColor=none;align=center;verticalAlign=middle;whiteSpace=wrap;overflow=hidden;" parent="lNBJAE7iZFgmnZ37y5jd-3" vertex="1">
            <mxGeometry x="240" y="260" width="80" height="20" as="geometry" />
          </mxCell>
        </UserObject>
        <mxCell id="lNBJAE7iZFgmnZ37y5jd-17" value="" style="verticalLabelPosition=bottom;shadow=0;dashed=0;align=center;html=1;verticalAlign=top;strokeWidth=1;shape=mxgraph.mockup.graphics.simpleIcon;strokeColor=#999999;" parent="lNBJAE7iZFgmnZ37y5jd-3" vertex="1">
          <mxGeometry x="411" y="300" width="60" height="50" as="geometry" />
        </mxCell>
        <UserObject label="Feature 3" placeholders="1" name="Variable" id="lNBJAE7iZFgmnZ37y5jd-18">
          <mxCell style="text;html=1;strokeColor=none;fillColor=none;align=center;verticalAlign=middle;whiteSpace=wrap;overflow=hidden;" parent="lNBJAE7iZFgmnZ37y5jd-3" vertex="1">
            <mxGeometry x="401" y="260" width="80" height="20" as="geometry" />
          </mxCell>
        </UserObject>
        <mxCell id="lNBJAE7iZFgmnZ37y5jd-19" value="http://kuench.dev" style="text;html=1;strokeColor=none;fillColor=none;align=left;verticalAlign=middle;whiteSpace=wrap;rounded=0;fontSize=20;" parent="1" vertex="1">
          <mxGeometry x="80" y="200" width="380" height="20" as="geometry" />
        </mxCell>
        <mxCell id="lNBJAE7iZFgmnZ37y5jd-20" value="Next.js project. Login via auth0. Payment via Stripe.&amp;nbsp;" style="text;html=1;strokeColor=none;fillColor=none;align=left;verticalAlign=middle;whiteSpace=wrap;rounded=0;fontSize=12;" parent="1" vertex="1">
          <mxGeometry x="83" y="230" width="550" height="20" as="geometry" />
        </mxCell>
        <mxCell id="lNBJAE7iZFgmnZ37y5jd-79" style="edgeStyle=orthogonalEdgeStyle;rounded=0;orthogonalLoop=1;jettySize=auto;html=1;entryX=0.871;entryY=1.002;entryDx=0;entryDy=0;entryPerimeter=0;fontSize=12;" parent="1" source="lNBJAE7iZFgmnZ37y5jd-21" target="lNBJAE7iZFgmnZ37y5jd-3" edge="1">
          <mxGeometry relative="1" as="geometry" />
        </mxCell>
        <mxCell id="lNBJAE7iZFgmnZ37y5jd-21" value="" style="shape=image;html=1;verticalAlign=top;verticalLabelPosition=bottom;labelBackgroundColor=#ffffff;imageAspect=0;aspect=fixed;image=https://cdn4.iconfinder.com/data/icons/logos-brands-5/24/auth0-128.png;fontSize=12;align=left;" parent="1" vertex="1">
          <mxGeometry x="480" y="785" width="160" height="160" as="geometry" />
        </mxCell>
        <mxCell id="lNBJAE7iZFgmnZ37y5jd-26" style="edgeStyle=orthogonalEdgeStyle;rounded=0;orthogonalLoop=1;jettySize=auto;html=1;entryX=0.505;entryY=1.003;entryDx=0;entryDy=0;entryPerimeter=0;fontSize=12;" parent="1" source="lNBJAE7iZFgmnZ37y5jd-24" target="lNBJAE7iZFgmnZ37y5jd-3" edge="1">
          <mxGeometry relative="1" as="geometry" />
        </mxCell>
        <mxCell id="lNBJAE7iZFgmnZ37y5jd-24" value="Postgres" style="shape=datastore;whiteSpace=wrap;html=1;fontSize=12;align=center;" parent="1" vertex="1">
          <mxGeometry x="290" y="780" width="136" height="170" as="geometry" />
        </mxCell>
        <mxCell id="lNBJAE7iZFgmnZ37y5jd-78" style="edgeStyle=orthogonalEdgeStyle;rounded=0;orthogonalLoop=1;jettySize=auto;html=1;entryX=0.173;entryY=1.002;entryDx=0;entryDy=0;entryPerimeter=0;fontSize=12;" parent="1" source="lNBJAE7iZFgmnZ37y5jd-27" target="lNBJAE7iZFgmnZ37y5jd-3" edge="1">
          <mxGeometry relative="1" as="geometry" />
        </mxCell>
        <mxCell id="lNBJAE7iZFgmnZ37y5jd-27" value="Stripe" style="rounded=1;whiteSpace=wrap;html=1;fontSize=12;align=center;" parent="1" vertex="1">
          <mxGeometry x="100" y="800" width="150" height="80" as="geometry" />
        </mxCell>
        <mxCell id="lNBJAE7iZFgmnZ37y5jd-29" value="" style="strokeWidth=1;shadow=0;dashed=0;align=center;html=1;shape=mxgraph.mockup.containers.browserWindow;rSize=0;strokeColor=#666666;strokeColor2=#008cff;strokeColor3=#c4c4c4;mainText=,;recursiveResize=0;" parent="1" vertex="1">
          <mxGeometry x="800" y="260" width="550" height="460" as="geometry" />
        </mxCell>
        <mxCell id="lNBJAE7iZFgmnZ37y5jd-30" value="Dashboard" style="strokeWidth=1;shadow=0;dashed=0;align=center;html=1;shape=mxgraph.mockup.containers.anchor;fontSize=17;fontColor=#666666;align=left;" parent="lNBJAE7iZFgmnZ37y5jd-29" vertex="1">
          <mxGeometry x="60" y="12" width="170" height="26" as="geometry" />
        </mxCell>
        <mxCell id="lNBJAE7iZFgmnZ37y5jd-31" value="https://app.kuench.dev" style="strokeWidth=1;shadow=0;dashed=0;align=center;html=1;shape=mxgraph.mockup.containers.anchor;rSize=0;fontSize=17;fontColor=#666666;align=left;" parent="lNBJAE7iZFgmnZ37y5jd-29" vertex="1">
          <mxGeometry x="130" y="60" width="250" height="26" as="geometry" />
        </mxCell>
        <mxCell id="lNBJAE7iZFgmnZ37y5jd-42" value="&amp;nbsp; Nav Bar" style="rounded=0;whiteSpace=wrap;html=1;fontSize=12;align=left;" parent="lNBJAE7iZFgmnZ37y5jd-29" vertex="1">
          <mxGeometry y="110" width="550" height="40" as="geometry" />
        </mxCell>
        <mxCell id="lNBJAE7iZFgmnZ37y5jd-43" value="" style="rounded=0;whiteSpace=wrap;html=1;fontSize=12;align=center;" parent="lNBJAE7iZFgmnZ37y5jd-29" vertex="1">
          <mxGeometry y="150" width="100" height="190" as="geometry" />
        </mxCell>
        <mxCell id="lNBJAE7iZFgmnZ37y5jd-44" value="" style="rounded=0;whiteSpace=wrap;html=1;fontSize=12;align=center;" parent="lNBJAE7iZFgmnZ37y5jd-29" vertex="1">
          <mxGeometry x="100" y="150" width="220" height="310" as="geometry" />
        </mxCell>
        <mxCell id="lNBJAE7iZFgmnZ37y5jd-53" value="Form" style="html=1;strokeColor=none;fillColor=#0079D6;labelPosition=center;verticalLabelPosition=middle;verticalAlign=top;align=center;fontSize=12;outlineConnect=0;spacingTop=-6;fontColor=#FFFFFF;shape=mxgraph.sitemap.form;" parent="lNBJAE7iZFgmnZ37y5jd-29" vertex="1">
          <mxGeometry x="150" y="190" width="120" height="70" as="geometry" />
        </mxCell>
        <mxCell id="lNBJAE7iZFgmnZ37y5jd-54" value="" style="aspect=fixed;html=1;points=[];align=center;image;fontSize=12;image=img/lib/azure2/general/Code.svg;" parent="lNBJAE7iZFgmnZ37y5jd-29" vertex="1">
          <mxGeometry x="370" y="189" width="87.38" height="71" as="geometry" />
        </mxCell>
        <mxCell id="lNBJAE7iZFgmnZ37y5jd-55" value="Item" style="rounded=0;whiteSpace=wrap;html=1;fontSize=12;align=center;" parent="lNBJAE7iZFgmnZ37y5jd-29" vertex="1">
          <mxGeometry y="150" width="100" height="40" as="geometry" />
        </mxCell>
        <mxCell id="lNBJAE7iZFgmnZ37y5jd-56" value="&lt;meta charset=&quot;utf-8&quot;&gt;&lt;span style=&quot;color: rgb(0, 0, 0); font-family: helvetica; font-size: 12px; font-style: normal; font-weight: 400; letter-spacing: normal; text-align: center; text-indent: 0px; text-transform: none; word-spacing: 0px; background-color: rgb(248, 249, 250); display: inline; float: none;&quot;&gt;Item&lt;/span&gt;" style="rounded=0;whiteSpace=wrap;html=1;fontSize=12;align=center;" parent="lNBJAE7iZFgmnZ37y5jd-29" vertex="1">
          <mxGeometry y="190" width="100" height="40" as="geometry" />
        </mxCell>
        <mxCell id="lNBJAE7iZFgmnZ37y5jd-57" value="&lt;meta charset=&quot;utf-8&quot;&gt;&lt;span style=&quot;color: rgb(0, 0, 0); font-family: helvetica; font-size: 12px; font-style: normal; font-weight: 400; letter-spacing: normal; text-align: center; text-indent: 0px; text-transform: none; word-spacing: 0px; background-color: rgb(248, 249, 250); display: inline; float: none;&quot;&gt;Item&lt;/span&gt;" style="rounded=0;whiteSpace=wrap;html=1;fontSize=12;align=center;" parent="lNBJAE7iZFgmnZ37y5jd-29" vertex="1">
          <mxGeometry y="230" width="100" height="40" as="geometry" />
        </mxCell>
        <mxCell id="lNBJAE7iZFgmnZ37y5jd-58" value="&lt;meta charset=&quot;utf-8&quot;&gt;&lt;span style=&quot;color: rgb(0, 0, 0); font-family: helvetica; font-size: 12px; font-style: normal; font-weight: 400; letter-spacing: normal; text-align: center; text-indent: 0px; text-transform: none; word-spacing: 0px; background-color: rgb(248, 249, 250); display: inline; float: none;&quot;&gt;Item&lt;/span&gt;" style="rounded=0;whiteSpace=wrap;html=1;fontSize=12;align=center;" parent="lNBJAE7iZFgmnZ37y5jd-29" vertex="1">
          <mxGeometry y="270" width="100" height="40" as="geometry" />
        </mxCell>
        <mxCell id="lNBJAE7iZFgmnZ37y5jd-59" value="&lt;meta charset=&quot;utf-8&quot;&gt;&lt;span style=&quot;color: rgb(0, 0, 0); font-family: helvetica; font-size: 12px; font-style: normal; font-weight: 400; letter-spacing: normal; text-align: center; text-indent: 0px; text-transform: none; word-spacing: 0px; background-color: rgb(248, 249, 250); display: inline; float: none;&quot;&gt;Item&lt;/span&gt;" style="rounded=0;whiteSpace=wrap;html=1;fontSize=12;align=center;" parent="lNBJAE7iZFgmnZ37y5jd-29" vertex="1">
          <mxGeometry y="310" width="100" height="40" as="geometry" />
        </mxCell>
        <mxCell id="lNBJAE7iZFgmnZ37y5jd-63" value="" style="endArrow=classic;startArrow=classic;html=1;fontSize=12;" parent="1" edge="1">
          <mxGeometry width="50" height="50" relative="1" as="geometry">
            <mxPoint x="640" y="490" as="sourcePoint" />
            <mxPoint x="790" y="490" as="targetPoint" />
          </mxGeometry>
        </mxCell>
        <mxCell id="lNBJAE7iZFgmnZ37y5jd-64" value="http://app.kuench.dev/david-first-cluster" style="text;html=1;strokeColor=none;fillColor=none;align=left;verticalAlign=middle;whiteSpace=wrap;rounded=0;fontSize=20;" parent="1" vertex="1">
          <mxGeometry x="800" y="200" width="380" height="20" as="geometry" />
        </mxCell>
        <mxCell id="lNBJAE7iZFgmnZ37y5jd-65" value="React SPA.&amp;nbsp;" style="text;html=1;strokeColor=none;fillColor=none;align=left;verticalAlign=middle;whiteSpace=wrap;rounded=0;fontSize=12;" parent="1" vertex="1">
          <mxGeometry x="800" y="230" width="550" height="20" as="geometry" />
        </mxCell>
        <mxCell id="lNBJAE7iZFgmnZ37y5jd-66" value="API" style="rounded=0;whiteSpace=wrap;html=1;fontSize=12;align=center;" parent="1" vertex="1">
          <mxGeometry x="800" y="840" width="550" height="60" as="geometry" />
        </mxCell>
        <mxCell id="lNBJAE7iZFgmnZ37y5jd-67" value="Kubernetes API" style="rounded=0;whiteSpace=wrap;html=1;fontSize=12;align=center;" parent="1" vertex="1">
          <mxGeometry x="800" y="1080" width="550" height="40" as="geometry" />
        </mxCell>
        <mxCell id="lNBJAE7iZFgmnZ37y5jd-71" value="" style="endArrow=classic;startArrow=classic;html=1;fontSize=12;" parent="1" edge="1">
          <mxGeometry width="50" height="50" relative="1" as="geometry">
            <mxPoint x="1270" y="1070" as="sourcePoint" />
            <mxPoint x="1270" y="910" as="targetPoint" />
          </mxGeometry>
        </mxCell>
        <mxCell id="lNBJAE7iZFgmnZ37y5jd-73" value="" style="endArrow=classic;startArrow=classic;html=1;fontSize=12;" parent="1" edge="1">
          <mxGeometry width="50" height="50" relative="1" as="geometry">
            <mxPoint x="1080" y="830" as="sourcePoint" />
            <mxPoint x="1080" y="740" as="targetPoint" />
          </mxGeometry>
        </mxCell>
        <mxCell id="lNBJAE7iZFgmnZ37y5jd-74" value="Golang project." style="text;html=1;strokeColor=none;fillColor=none;align=left;verticalAlign=middle;whiteSpace=wrap;rounded=0;fontSize=12;" parent="1" vertex="1">
          <mxGeometry x="800" y="930" width="550" height="20" as="geometry" />
        </mxCell>
        <mxCell id="lNBJAE7iZFgmnZ37y5jd-76" value="http://api.kuench.dev/david-first-cluster" style="text;html=1;strokeColor=none;fillColor=none;align=left;verticalAlign=middle;whiteSpace=wrap;rounded=0;fontSize=20;" parent="1" vertex="1">
          <mxGeometry x="800" y="910" width="470" height="20" as="geometry" />
        </mxCell>
        <mxCell id="lNBJAE7iZFgmnZ37y5jd-77" value="Auth0" style="text;html=1;strokeColor=none;fillColor=none;align=left;verticalAlign=middle;whiteSpace=wrap;rounded=0;fontSize=12;" parent="1" vertex="1">
          <mxGeometry x="542.5" y="850" width="35" height="20" as="geometry" />
        </mxCell>
        <mxCell id="lNBJAE7iZFgmnZ37y5jd-80" value="" style="endArrow=classic;startArrow=classic;html=1;fontSize=12;entryX=0.994;entryY=0.425;entryDx=0;entryDy=0;entryPerimeter=0;" parent="1" target="lNBJAE7iZFgmnZ37y5jd-21" edge="1">
          <mxGeometry width="50" height="50" relative="1" as="geometry">
            <mxPoint x="790" y="853" as="sourcePoint" />
            <mxPoint x="650" y="710" as="targetPoint" />
          </mxGeometry>
        </mxCell>
        <mxCell id="cb4l5SWerSysEZ6yqc60-9" style="edgeStyle=orthogonalEdgeStyle;rounded=0;orthogonalLoop=1;jettySize=auto;html=1;entryX=1.003;entryY=0.179;entryDx=0;entryDy=0;entryPerimeter=0;fontSize=20;fontColor=#6666FF;" edge="1" parent="1" source="cb4l5SWerSysEZ6yqc60-3" target="cb4l5SWerSysEZ6yqc60-1">
          <mxGeometry relative="1" as="geometry" />
        </mxCell>
        <mxCell id="cb4l5SWerSysEZ6yqc60-3" value="Saas&lt;br&gt;Stack" style="text;html=1;fillColor=none;align=center;verticalAlign=middle;whiteSpace=wrap;rounded=0;dashed=1;fontSize=20;fontColor=#FF3333;strokeColor=#000000;" vertex="1" parent="1">
          <mxGeometry x="1485" y="280" width="75" height="60" as="geometry" />
        </mxCell>
        <mxCell id="cb4l5SWerSysEZ6yqc60-8" style="edgeStyle=orthogonalEdgeStyle;rounded=0;orthogonalLoop=1;jettySize=auto;html=1;entryX=1.004;entryY=0.298;entryDx=0;entryDy=0;entryPerimeter=0;fontSize=20;fontColor=#6666FF;" edge="1" parent="1" source="cb4l5SWerSysEZ6yqc60-4" target="cb4l5SWerSysEZ6yqc60-2">
          <mxGeometry relative="1" as="geometry" />
        </mxCell>
        <mxCell id="cb4l5SWerSysEZ6yqc60-4" value="Open-Source&lt;br&gt;Stack" style="text;html=1;fillColor=none;align=center;verticalAlign=middle;whiteSpace=wrap;rounded=0;dashed=1;fontSize=20;fontColor=#6666FF;strokeColor=#000000;" vertex="1" parent="1">
          <mxGeometry x="1485" y="400" width="140" height="60" as="geometry" />
        </mxCell>
      </root>
    </mxGraphModel>
  </diagram>
</mxfile>
